<svg width="182" height="182" viewBox="0 0 182 182" fill="none" xmlns="http://www.w3.org/2000/svg">
<path d="M90.5397 181.079C40.5955 181.079 0 140.484 0 90.5397C0 40.5955 40.5955 0 90.5397 0C140.484 0 181.079 40.5955 181.079 90.5397C181.079 140.484 140.484 181.079 90.5397 181.079ZM90.5397 12.6334C47.586 12.6334 12.6334 47.586 12.6334 90.5397C12.6334 133.493 47.586 168.446 90.5397 168.446C133.493 168.446 168.446 133.493 168.446 90.5397C168.446 47.586 133.493 12.6334 90.5397 12.6334Z" fill="#06BA63"/>
<path d="M78.5759 120.692C76.8914 120.692 75.2912 120.019 74.1121 118.839L50.2766 95.0043C47.8341 92.5619 47.8341 88.5192 50.2766 86.0767C52.719 83.6342 56.7617 83.6342 59.2042 86.0767L78.5759 105.448L121.866 62.1574C124.309 59.7149 128.352 59.7149 130.794 62.1574C133.237 64.5999 133.237 68.6425 130.794 71.085L83.0397 118.839C81.8606 120.019 80.2603 120.692 78.5759 120.692Z" fill="#06BA63"/>
</svg>
